<mxfile host="app.diagrams.net" agent="Mozilla/5.0 (Windows NT 10.0; Win64; x64) AppleWebKit/537.36 (KHTML, like Gecko) Chrome/140.0.0.0 Safari/537.36" version="28.2.5">
  <diagram name="Page-1" id="AkbXWJJ0nE_2nQffPrWs">
    <mxGraphModel dx="1281" dy="562" grid="1" gridSize="10" guides="1" tooltips="1" connect="1" arrows="1" fold="1" page="1" pageScale="1" pageWidth="850" pageHeight="1100" math="0" shadow="0">
      <root>
        <mxCell id="0" />
        <mxCell id="1" parent="0" />
        <mxCell id="UvEx6nLII2b8a9pfjLfl-2" value="WARGA" style="shape=umlActor;verticalLabelPosition=bottom;verticalAlign=top;html=1;outlineConnect=0;" vertex="1" parent="1">
          <mxGeometry x="40" y="160" width="60" height="80" as="geometry" />
        </mxCell>
        <mxCell id="UvEx6nLII2b8a9pfjLfl-5" value="" style="ellipse;whiteSpace=wrap;html=1;" vertex="1" parent="1">
          <mxGeometry x="205" y="70" width="100" height="60" as="geometry" />
        </mxCell>
        <mxCell id="UvEx6nLII2b8a9pfjLfl-6" value="" style="endArrow=none;html=1;rounded=0;entryX=0.054;entryY=0.723;entryDx=0;entryDy=0;entryPerimeter=0;" edge="1" parent="1" target="UvEx6nLII2b8a9pfjLfl-5">
          <mxGeometry width="50" height="50" relative="1" as="geometry">
            <mxPoint x="100" y="190" as="sourcePoint" />
            <mxPoint x="230" y="120" as="targetPoint" />
          </mxGeometry>
        </mxCell>
        <mxCell id="UvEx6nLII2b8a9pfjLfl-7" value="" style="ellipse;whiteSpace=wrap;html=1;" vertex="1" parent="1">
          <mxGeometry x="200" y="140" width="110" height="60" as="geometry" />
        </mxCell>
        <mxCell id="UvEx6nLII2b8a9pfjLfl-8" value="" style="ellipse;whiteSpace=wrap;html=1;" vertex="1" parent="1">
          <mxGeometry x="200" y="210" width="115" height="70" as="geometry" />
        </mxCell>
        <mxCell id="UvEx6nLII2b8a9pfjLfl-10" value="" style="endArrow=none;html=1;rounded=0;entryX=0;entryY=0.5;entryDx=0;entryDy=0;" edge="1" parent="1" target="UvEx6nLII2b8a9pfjLfl-7">
          <mxGeometry width="50" height="50" relative="1" as="geometry">
            <mxPoint x="100" y="190" as="sourcePoint" />
            <mxPoint x="230" y="160" as="targetPoint" />
          </mxGeometry>
        </mxCell>
        <mxCell id="UvEx6nLII2b8a9pfjLfl-11" value="" style="endArrow=none;html=1;rounded=0;entryX=0;entryY=0.5;entryDx=0;entryDy=0;" edge="1" parent="1" target="UvEx6nLII2b8a9pfjLfl-8">
          <mxGeometry width="50" height="50" relative="1" as="geometry">
            <mxPoint x="100" y="190" as="sourcePoint" />
            <mxPoint x="215" y="190" as="targetPoint" />
          </mxGeometry>
        </mxCell>
        <mxCell id="UvEx6nLII2b8a9pfjLfl-14" value="REGISTER" style="text;html=1;align=center;verticalAlign=middle;whiteSpace=wrap;rounded=0;" vertex="1" parent="1">
          <mxGeometry x="225" y="85" width="60" height="30" as="geometry" />
        </mxCell>
        <mxCell id="UvEx6nLII2b8a9pfjLfl-15" value="MEMBUAT PENGADUAN" style="text;html=1;align=center;verticalAlign=middle;whiteSpace=wrap;rounded=0;" vertex="1" parent="1">
          <mxGeometry x="225" y="155" width="60" height="30" as="geometry" />
        </mxCell>
        <mxCell id="UvEx6nLII2b8a9pfjLfl-16" value="MELIHAT HISTORY" style="text;html=1;align=center;verticalAlign=middle;whiteSpace=wrap;rounded=0;" vertex="1" parent="1">
          <mxGeometry x="227.5" y="230" width="60" height="30" as="geometry" />
        </mxCell>
        <mxCell id="UvEx6nLII2b8a9pfjLfl-17" value="ADMIN" style="shape=umlActor;verticalLabelPosition=bottom;verticalAlign=top;html=1;outlineConnect=0;" vertex="1" parent="1">
          <mxGeometry x="780" y="145" width="60" height="80" as="geometry" />
        </mxCell>
        <mxCell id="UvEx6nLII2b8a9pfjLfl-19" value="" style="ellipse;whiteSpace=wrap;html=1;" vertex="1" parent="1">
          <mxGeometry x="390" y="220" width="110" height="60" as="geometry" />
        </mxCell>
        <mxCell id="UvEx6nLII2b8a9pfjLfl-20" value="LOGIN" style="text;html=1;align=center;verticalAlign=middle;whiteSpace=wrap;rounded=0;" vertex="1" parent="1">
          <mxGeometry x="415" y="235" width="60" height="30" as="geometry" />
        </mxCell>
        <mxCell id="UvEx6nLII2b8a9pfjLfl-21" value="" style="ellipse;whiteSpace=wrap;html=1;" vertex="1" parent="1">
          <mxGeometry x="580" y="70" width="110" height="60" as="geometry" />
        </mxCell>
        <mxCell id="UvEx6nLII2b8a9pfjLfl-23" value="MENGLOLA USER" style="text;html=1;align=center;verticalAlign=middle;whiteSpace=wrap;rounded=0;" vertex="1" parent="1">
          <mxGeometry x="605" y="85" width="60" height="30" as="geometry" />
        </mxCell>
        <mxCell id="UvEx6nLII2b8a9pfjLfl-24" value="" style="ellipse;whiteSpace=wrap;html=1;" vertex="1" parent="1">
          <mxGeometry x="580" y="140" width="110" height="60" as="geometry" />
        </mxCell>
        <mxCell id="UvEx6nLII2b8a9pfjLfl-25" value="MENGLOLA&amp;nbsp;&amp;nbsp;&lt;div&gt;JENIS PENGADUAN&lt;/div&gt;" style="text;html=1;align=center;verticalAlign=middle;whiteSpace=wrap;rounded=0;" vertex="1" parent="1">
          <mxGeometry x="605" y="155" width="60" height="30" as="geometry" />
        </mxCell>
        <mxCell id="UvEx6nLII2b8a9pfjLfl-26" value="" style="ellipse;whiteSpace=wrap;html=1;" vertex="1" parent="1">
          <mxGeometry x="580" y="210" width="110" height="60" as="geometry" />
        </mxCell>
        <mxCell id="UvEx6nLII2b8a9pfjLfl-28" value="VALIDASI DATA" style="text;html=1;align=center;verticalAlign=middle;whiteSpace=wrap;rounded=0;" vertex="1" parent="1">
          <mxGeometry x="605" y="225" width="60" height="30" as="geometry" />
        </mxCell>
        <mxCell id="UvEx6nLII2b8a9pfjLfl-29" value="" style="endArrow=none;html=1;rounded=0;exitX=1.009;exitY=0.663;exitDx=0;exitDy=0;exitPerimeter=0;" edge="1" parent="1" source="UvEx6nLII2b8a9pfjLfl-21">
          <mxGeometry width="50" height="50" relative="1" as="geometry">
            <mxPoint x="700" y="140" as="sourcePoint" />
            <mxPoint x="760" y="200" as="targetPoint" />
          </mxGeometry>
        </mxCell>
        <mxCell id="UvEx6nLII2b8a9pfjLfl-30" value="" style="endArrow=none;html=1;rounded=0;exitX=1;exitY=0.5;exitDx=0;exitDy=0;" edge="1" parent="1" source="UvEx6nLII2b8a9pfjLfl-26">
          <mxGeometry width="50" height="50" relative="1" as="geometry">
            <mxPoint x="700" y="230" as="sourcePoint" />
            <mxPoint x="760" y="200" as="targetPoint" />
          </mxGeometry>
        </mxCell>
        <mxCell id="UvEx6nLII2b8a9pfjLfl-31" value="" style="endArrow=none;html=1;rounded=0;exitX=1;exitY=0.5;exitDx=0;exitDy=0;" edge="1" parent="1" source="UvEx6nLII2b8a9pfjLfl-24">
          <mxGeometry width="50" height="50" relative="1" as="geometry">
            <mxPoint x="670" y="200" as="sourcePoint" />
            <mxPoint x="760" y="200" as="targetPoint" />
          </mxGeometry>
        </mxCell>
        <mxCell id="UvEx6nLII2b8a9pfjLfl-35" value="" style="endArrow=open;endSize=12;dashed=1;html=1;rounded=0;exitX=0;exitY=0.667;exitDx=0;exitDy=0;exitPerimeter=0;" edge="1" parent="1" source="UvEx6nLII2b8a9pfjLfl-21">
          <mxGeometry width="160" relative="1" as="geometry">
            <mxPoint x="350" y="90" as="sourcePoint" />
            <mxPoint x="480" y="200" as="targetPoint" />
          </mxGeometry>
        </mxCell>
        <mxCell id="UvEx6nLII2b8a9pfjLfl-36" value="" style="endArrow=open;endSize=12;dashed=1;html=1;rounded=0;exitX=0;exitY=0.667;exitDx=0;exitDy=0;exitPerimeter=0;" edge="1" parent="1">
          <mxGeometry width="160" relative="1" as="geometry">
            <mxPoint x="580" y="170" as="sourcePoint" />
            <mxPoint x="510" y="220" as="targetPoint" />
          </mxGeometry>
        </mxCell>
        <mxCell id="UvEx6nLII2b8a9pfjLfl-37" value="" style="endArrow=open;endSize=12;dashed=1;html=1;rounded=0;exitX=0;exitY=0.5;exitDx=0;exitDy=0;" edge="1" parent="1" source="UvEx6nLII2b8a9pfjLfl-26">
          <mxGeometry width="160" relative="1" as="geometry">
            <mxPoint x="590" y="210" as="sourcePoint" />
            <mxPoint x="510" y="250" as="targetPoint" />
          </mxGeometry>
        </mxCell>
        <mxCell id="UvEx6nLII2b8a9pfjLfl-38" value="" style="endArrow=open;endSize=12;dashed=1;html=1;rounded=0;" edge="1" parent="1">
          <mxGeometry width="160" relative="1" as="geometry">
            <mxPoint x="315" y="160" as="sourcePoint" />
            <mxPoint x="380" y="230" as="targetPoint" />
          </mxGeometry>
        </mxCell>
        <mxCell id="UvEx6nLII2b8a9pfjLfl-39" value="" style="endArrow=open;endSize=12;dashed=1;html=1;rounded=0;" edge="1" parent="1">
          <mxGeometry width="160" relative="1" as="geometry">
            <mxPoint x="315" y="250" as="sourcePoint" />
            <mxPoint x="380" y="250" as="targetPoint" />
          </mxGeometry>
        </mxCell>
        <mxCell id="UvEx6nLII2b8a9pfjLfl-40" value="CAMAT" style="shape=umlActor;verticalLabelPosition=bottom;verticalAlign=top;html=1;outlineConnect=0;" vertex="1" parent="1">
          <mxGeometry x="60" y="520" width="60" height="80" as="geometry" />
        </mxCell>
        <mxCell id="UvEx6nLII2b8a9pfjLfl-42" value="" style="ellipse;whiteSpace=wrap;html=1;" vertex="1" parent="1">
          <mxGeometry x="340" y="520" width="120" height="60" as="geometry" />
        </mxCell>
        <mxCell id="UvEx6nLII2b8a9pfjLfl-43" value="MELIHAT LAPORAN" style="text;html=1;align=center;verticalAlign=middle;whiteSpace=wrap;rounded=0;" vertex="1" parent="1">
          <mxGeometry x="370" y="535" width="60" height="30" as="geometry" />
        </mxCell>
        <mxCell id="UvEx6nLII2b8a9pfjLfl-44" value="" style="ellipse;whiteSpace=wrap;html=1;" vertex="1" parent="1">
          <mxGeometry x="540" y="440" width="110" height="60" as="geometry" />
        </mxCell>
        <mxCell id="UvEx6nLII2b8a9pfjLfl-45" value="CAMAT" style="shape=umlActor;verticalLabelPosition=bottom;verticalAlign=top;html=1;outlineConnect=0;" vertex="1" parent="1">
          <mxGeometry x="750" y="500" width="60" height="80" as="geometry" />
        </mxCell>
        <mxCell id="UvEx6nLII2b8a9pfjLfl-46" value="MELIHAT LIST PENGADUANN" style="text;html=1;align=center;verticalAlign=middle;whiteSpace=wrap;rounded=0;" vertex="1" parent="1">
          <mxGeometry x="565" y="455" width="60" height="30" as="geometry" />
        </mxCell>
        <mxCell id="UvEx6nLII2b8a9pfjLfl-47" value="" style="ellipse;whiteSpace=wrap;html=1;" vertex="1" parent="1">
          <mxGeometry x="540" y="580" width="110" height="60" as="geometry" />
        </mxCell>
        <mxCell id="UvEx6nLII2b8a9pfjLfl-48" value="MEMBERI TANGGAPAN" style="text;html=1;align=center;verticalAlign=middle;whiteSpace=wrap;rounded=0;" vertex="1" parent="1">
          <mxGeometry x="565" y="595" width="60" height="30" as="geometry" />
        </mxCell>
        <mxCell id="UvEx6nLII2b8a9pfjLfl-50" value="" style="endArrow=none;html=1;rounded=0;entryX=0;entryY=0.5;entryDx=0;entryDy=0;" edge="1" parent="1" target="UvEx6nLII2b8a9pfjLfl-42">
          <mxGeometry width="50" height="50" relative="1" as="geometry">
            <mxPoint x="140" y="565" as="sourcePoint" />
            <mxPoint x="190" y="515" as="targetPoint" />
          </mxGeometry>
        </mxCell>
        <mxCell id="UvEx6nLII2b8a9pfjLfl-51" value="" style="endArrow=none;html=1;rounded=0;exitX=0.776;exitY=0.03;exitDx=0;exitDy=0;exitPerimeter=0;" edge="1" parent="1" source="UvEx6nLII2b8a9pfjLfl-44">
          <mxGeometry width="50" height="50" relative="1" as="geometry">
            <mxPoint x="710" y="250" as="sourcePoint" />
            <mxPoint x="760" y="200" as="targetPoint" />
          </mxGeometry>
        </mxCell>
        <mxCell id="UvEx6nLII2b8a9pfjLfl-52" value="" style="endArrow=none;html=1;rounded=0;" edge="1" parent="1" source="UvEx6nLII2b8a9pfjLfl-44">
          <mxGeometry width="50" height="50" relative="1" as="geometry">
            <mxPoint x="680" y="585" as="sourcePoint" />
            <mxPoint x="730" y="535" as="targetPoint" />
          </mxGeometry>
        </mxCell>
        <mxCell id="UvEx6nLII2b8a9pfjLfl-55" value="" style="endArrow=none;html=1;rounded=0;exitX=0.995;exitY=0.35;exitDx=0;exitDy=0;exitPerimeter=0;" edge="1" parent="1" source="UvEx6nLII2b8a9pfjLfl-47">
          <mxGeometry width="50" height="50" relative="1" as="geometry">
            <mxPoint x="680" y="585" as="sourcePoint" />
            <mxPoint x="730" y="535" as="targetPoint" />
          </mxGeometry>
        </mxCell>
        <mxCell id="UvEx6nLII2b8a9pfjLfl-56" value="" style="endArrow=block;dashed=1;endFill=0;endSize=12;html=1;rounded=0;exitX=0;exitY=0;exitDx=0;exitDy=0;" edge="1" parent="1" source="UvEx6nLII2b8a9pfjLfl-47">
          <mxGeometry width="160" relative="1" as="geometry">
            <mxPoint x="350" y="390" as="sourcePoint" />
            <mxPoint x="450" y="290" as="targetPoint" />
          </mxGeometry>
        </mxCell>
        <mxCell id="UvEx6nLII2b8a9pfjLfl-57" value="" style="endArrow=block;dashed=1;endFill=0;endSize=12;html=1;rounded=0;exitX=0.42;exitY=-0.037;exitDx=0;exitDy=0;exitPerimeter=0;" edge="1" parent="1" source="UvEx6nLII2b8a9pfjLfl-44">
          <mxGeometry width="160" relative="1" as="geometry">
            <mxPoint x="636" y="589" as="sourcePoint" />
            <mxPoint x="500" y="290" as="targetPoint" />
          </mxGeometry>
        </mxCell>
        <mxCell id="UvEx6nLII2b8a9pfjLfl-58" value="" style="endArrow=block;dashed=1;endFill=0;endSize=12;html=1;rounded=0;exitX=0.417;exitY=0;exitDx=0;exitDy=0;exitPerimeter=0;" edge="1" parent="1" source="UvEx6nLII2b8a9pfjLfl-42">
          <mxGeometry width="160" relative="1" as="geometry">
            <mxPoint x="401" y="520" as="sourcePoint" />
            <mxPoint x="420" y="290" as="targetPoint" />
          </mxGeometry>
        </mxCell>
      </root>
    </mxGraphModel>
  </diagram>
</mxfile>
